/vscmnt/brussel_pixiu_data/_data_brussel/112/vsc11236/PredSimResults/SUBJ10mtu3D/worker1.mot
version=1
nRows=9
nColumns=50
inDegrees=yes
endheader
                time	         pelvis_tilt	         pelvis_list	     pelvis_rotation	           pelvis_tx	           pelvis_ty	           pelvis_tz	       hip_flexion_r	     hip_adduction_r	      hip_rotation_r	        knee_angle_r	       ankle_angle_r	         mtp_angle_r	       hip_flexion_l	     hip_adduction_l	      hip_rotation_l	        knee_angle_l	       ankle_angle_l	         mtp_angle_l	    lumbar_extension	      lumbar_bending	     lumbar_rotation	 ercspn_r/activation	 intobl_r/activation	 extobl_r/activation	    abd_r/activation	    add_r/activation	hamstrings_r/activation	bifemsh_r/activation	glut_max_r/activation	iliopsoas_r/activation	rect_fem_r/activation	  vasti_r/activation	gastroc_r/activation	 soleus_r/activation	tib_ant_r/activation	 ercspn_l/activation	 intobl_l/activation	 extobl_l/activation	    abd_l/activation	    add_l/activation	hamstrings_l/activation	bifemsh_l/activation	glut_max_l/activation	iliopsoas_l/activation	rect_fem_l/activation	  vasti_l/activation	gastroc_l/activation	 soleus_l/activation	tib_ant_l/activation	
          0.55782870	         -4.64948324	          1.32505900	         -7.83742320	          0.67497273	          0.82208782	          0.01267498	        -16.22092158	         -1.24193884	         -0.64587792	         -5.02397925	          7.75900524	         26.65116984	         31.05077630	         -1.46598964	         -6.88812828	         -5.87680959	          2.80892173	          0.26731135	         -6.39811152	          0.40962025	          6.75997749	          0.05425286	          0.00999999	          0.00999999	          0.05192381	          0.00999999	          0.01576416	          0.22698102	          0.01197675	          0.34157713	          0.00999999	          0.00999999	          0.31223636	          0.24347509	          0.02345949	          0.11602824	          0.18158661	          0.00999999	          0.00999999	          0.12159316	          0.12176357	          0.25255179	          0.02777644	          0.12876141	          0.00999999	          0.00999999	          0.01016089	          0.00999999	          0.29011287	
          0.56898528	         -4.69858918	          1.27977538	         -7.93873770	          0.69054908	          0.82064705	          0.01260013	        -16.36467409	         -1.34517591	         -0.94630738	         -6.59429428	          7.04520206	         28.29508807	         31.05675776	         -1.39016687	         -6.71151792	         -7.57570525	          2.54236841	          0.26463069	         -6.20753397	         -0.01542002	          7.03352547	          0.08999440	          0.00999999	          0.00999999	          0.04378273	          0.00999999	          0.01329254	          0.19139287	          0.01185942	          0.28802157	          0.00999999	          0.00999999	          0.27908968	          0.23376930	          0.01978129	          0.09783628	          0.15311581	          0.00999999	          0.00999999	          0.16151876	          0.10622675	          0.21601835	          0.06145229	          0.10857303	          0.00999999	          0.00999999	          0.01690552	          0.01185942	          0.31277296	
          0.58014185	         -4.73720783	          1.24554402	         -7.99673093	          0.70644356	          0.81939839	          0.01245023	        -16.40099841	         -1.46708853	         -1.27823829	         -8.39529490	          6.20520119	         29.88332239	         30.88916679	         -1.32447113	         -6.47426634	         -9.15356771	          2.14509900	          0.25478926	         -5.99521194	         -0.46250919	          7.27898296	          0.10294810	          0.00999999	          0.00999999	          0.03691807	          0.00999999	          0.01120843	          0.16138456	          0.00999999	          0.24286293	          0.00999999	          0.00999999	          0.23533147	          0.21854061	          0.01667980	          0.08531646	          0.12910893	          0.00999999	          0.03208481	          0.13619438	          0.09288641	          0.18214903	          0.09505689	          0.09154996	          0.00999999	          0.00999999	          0.01425492	          0.00999999	          0.39494753	
          0.59129842	         -4.76678604	          1.21037653	         -8.00615419	          0.72244826	          0.81846731	          0.01217484	        -16.25802082	         -1.59722200	         -1.64260860	        -10.52263411	          5.24049726	         31.33490030	         30.63402036	         -1.25114712	         -6.30910234	        -10.56253668	          1.62947941	          0.24147901	         -5.78701047	         -0.90829042	          7.49105722	          0.13053950	          0.00999999	          0.00999999	          0.03112972	          0.00999999	          0.01255607	          0.13608122	          0.00999999	          0.20478467	          0.00999999	          0.00999999	          0.19843406	          0.20194511	          0.01406459	          0.10245308	          0.10886606	          0.00999999	          0.08435548	          0.17300775	          0.07832284	          0.15359005	          0.11187434	          0.07719593	          0.00999999	          0.00999999	          0.01201990	          0.00999999	          0.44796553	
          0.60245500	         -4.78653695	          1.17272036	         -7.97199491	          0.73841586	          0.81795950	          0.01178635	        -15.88388426	         -1.73694515	         -2.04275464	        -13.04113184	          4.15737854	         32.52239193	         30.37428186	         -1.17210201	         -6.20623680	        -11.98905164	          1.21051195	          0.22597085	         -5.59549418	         -1.34987946	          7.66837042	          0.16390721	          0.00999999	          0.00999999	          0.02624892	          0.02538783	          0.02076271	          0.11474517	          0.00999999	          0.17267667	          0.00999999	          0.00999999	          0.16732177	          0.17767787	          0.01185942	          0.10949167	          0.09179705	          0.00999999	          0.12312007	          0.22355368	          0.06792153	          0.12950881	          0.12675264	          0.06509245	          0.00999999	          0.00999999	          0.01013532	          0.00999999	          0.46700922	
          0.61361157	         -4.79620927	          1.13360628	         -7.89888151	          0.75424589	          0.81795737	          0.01129954	        -15.23836917	         -1.89134949	         -2.49142866	        -15.99641485	          2.96960234	         33.27123528	         30.14600300	         -1.08948260	         -6.14553452	        -13.50485784	          0.99859373	          0.20990299	         -5.42514926	         -1.78594293	          7.81163239	          0.19034355	          0.00999999	          0.00999999	          0.02213338	          0.08181128	          0.01839235	          0.09675438	          0.00999999	          0.14560286	          0.00999999	          0.00999999	          0.14108754	          0.14981992	          0.00999999	          0.10939578	          0.07740427	          0.00999999	          0.14744422	          0.25817447	          0.06202714	          0.10920324	          0.13386147	          0.05488666	          0.00999999	          0.03513689	          0.00999999	          0.00999999	          0.46461108	
          0.62476815	         -4.79714127	          1.08821621	         -7.78766531	          0.76986171	          0.81854496	          0.01073560	        -14.28488620	         -2.06117993	         -3.01346670	        -19.42876108	          1.69057288	         33.37287626	         29.90885265	         -1.00328270	         -6.10588348	        -15.02822551	          1.03006817	          0.19419442	         -5.27899089	         -2.20963619	          7.92024252	          0.20089575	          0.00999999	          0.00999999	          0.01866311	          0.14558611	          0.01592620	          0.08158435	          0.00999999	          0.12277392	          0.00999999	          0.00999999	          0.11896655	          0.12632979	          0.00999999	          0.10740320	          0.06526813	          0.00999999	          0.15775867	          0.28107868	          0.06064666	          0.09208136	          0.12955412	          0.04628103	          0.00999999	          0.06172029	          0.00999999	          0.00999999	          0.44374142	
          0.63592472	         -4.79115828	          1.03066916	         -7.63837140	          0.78523021	          0.81973638	          0.01011990	        -13.01053592	         -2.25116875	         -3.61208367	        -23.31375611	          0.20954855	         32.81204585	         29.59258910	         -0.91000170	         -6.06001699	        -16.42976906	          1.31793970	          0.18796313	         -5.15688412	         -2.61493579	          7.99238383	          0.20171221	          0.00999999	          0.00999999	          0.01573693	          0.20904273	          0.01411445	          0.06879281	          0.00999999	          0.10352431	          0.00999999	          0.00999999	          0.10031390	          0.10652266	          0.00999999	          0.09917274	          0.05503480	          0.00999999	          0.15954070	          0.28480542	          0.06088864	          0.07764401	          0.12160437	          0.03902467	          0.00999999	          0.08558437	          0.00999999	          0.00999999	          0.39749573	
          0.64708129	         -4.78048024	          0.95401633	         -7.45035794	          0.80032124	          0.82148967	          0.00947535	        -11.42853817	         -2.46523491	         -4.27246436	        -27.55861573	         -1.61739253	         31.63460798	         29.13852829	         -0.80813054	         -5.97792028	        -17.59342915	          1.84185041	          0.21672067	         -5.06105575	         -2.99553358	          8.02636061	          0.19345970	          0.00999999	          0.00999999	          0.01326955	          0.25246163	          0.02740227	          0.05800685	          0.00999999	          0.08729283	          0.00999999	          0.00999999	          0.08458577	          0.08982107	          0.00999999	          0.08362354	          0.04640594	          0.00999999	          0.15625687	          0.25440031	          0.06428247	          0.06547028	          0.10253813	          0.03290603	          0.00999999	          0.11350310	          0.00999999	          0.00999999	          0.34075896	
